<?xml version="1.0" encoding="utf-8"?>
<svg xmlns="http://www.w3.org/2000/svg" style="margin: auto; background: rgb(255, 255, 255); display: block; shape-rendering: auto;" width="400" height="300" preserveAspectRatio="xMidYMid">
<style type="text/css">
  text {
    text-anchor: middle; font-size: 70px; opacity: 0;
  }
</style>
<g style="transform-origin:200px 150px;transform:scale(1)">
<g transform="translate(200,150)">
  <g transform="translate(-7,-17)"><g class="path" style="opacity: 1; transform-origin: -161.655px -5.8812px; animation: 1s linear -0.533333s infinite normal forwards running fade-0cd69323-00f1-491d-8e34-bf36e3bb5f8a;"><path d="M6.29-49.01L13.30-49.01L13.30-27.86L36.67-49.01L46.55-49.01L20.03-24.99L47.61 0L37.73 0L13.30-22.05L13.30 0L6.29 0L6.29-49.01" fill="#ff6666" stroke="none" stroke-width="none" transform="translate(-188.60501098632812,18.623797912597656)" style="fill: rgb(255, 102, 102);"></path></g><g class="path" style="opacity: 1; transform-origin: -119.92px 0.423798px; animation: 1s linear -0.466667s infinite normal forwards running fade-0cd69323-00f1-491d-8e34-bf36e3bb5f8a;"><path d="M53.29-6.73L53.29-15.89L53.29-15.89Q53.29-17.29 53.82-18.51L53.82-18.51L53.82-18.51Q54.35-19.72 55.25-20.64L55.25-20.64L55.25-20.64Q56.16-21.57 57.39-22.10L57.39-22.10L57.39-22.10Q58.62-22.63 59.99-22.63L59.99-22.63L77.35-22.63L77.35-29.67L55.37-29.67L55.37-36.40L77.35-36.40L77.35-36.40Q78.75-36.40 79.98-35.87L79.98-35.87L79.98-35.87Q81.21-35.34 82.12-34.44L82.12-34.44L82.12-34.44Q83.02-33.53 83.55-32.30L83.55-32.30L83.55-32.30Q84.08-31.07 84.08-29.67L84.08-29.67L84.08 0L77.35 0L77.35-6.15L77.35-6.15Q77.25-4.89 76.67-3.76L76.67-3.76L76.67-3.76Q76.08-2.63 75.18-1.79L75.18-1.79L75.18-1.79Q74.27-0.96 73.11-0.48L73.11-0.48L73.11-0.48Q71.95 0 70.65 0L70.65 0L59.99 0L59.99 0Q58.62 0 57.39-0.53L57.39-0.53L57.39-0.53Q56.16-1.06 55.25-1.97L55.25-1.97L55.25-1.97Q54.35-2.87 53.82-4.10L53.82-4.10L53.82-4.10Q53.29-5.33 53.29-6.73L53.29-6.73zM59.99-15.89L59.99-6.73L77.35-6.73L77.35-15.89L59.99-15.89" fill="#ff6666" stroke="none" stroke-width="none" transform="translate(-188.60501098632812,18.623797912597656)" style="fill: rgb(255, 102, 153);"></path></g><g class="path" style="opacity: 1; transform-origin: -71.965px -5.8812px; animation: 1s linear -0.4s infinite normal forwards running fade-0cd69323-00f1-491d-8e34-bf36e3bb5f8a;"><path d="M95.98-49.01L102.98-49.01L102.98-27.86L126.36-49.01L136.24-49.01L109.72-24.99L137.30 0L127.42 0L102.98-22.05L102.98 0L95.98 0L95.98-49.01" fill="#ff6666" stroke="none" stroke-width="none" transform="translate(-188.60501098632812,18.623797912597656)" style="fill: rgb(255, 102, 204);"></path></g><g class="path" style="opacity: 1; transform-origin: -29.535px 0.423798px; animation: 1s linear -0.333333s infinite normal forwards running fade-0cd69323-00f1-491d-8e34-bf36e3bb5f8a;"><path d="M142.97-6.73L142.97-36.40L149.67-36.40L149.67-6.73L168.44-6.73L168.44-36.40L175.17-36.40L175.17 0L168.44 0L168.44-6.15L168.44-6.15Q168.33-4.89 167.75-3.76L167.75-3.76L167.75-3.76Q167.17-2.63 166.27-1.79L166.27-1.79L166.27-1.79Q165.36-0.96 164.20-0.48L164.20-0.48L164.20-0.48Q163.04 0 161.74 0L161.74 0L149.67 0L149.67 0Q148.31 0 147.08-0.53L147.08-0.53L147.08-0.53Q145.84-1.06 144.94-1.97L144.94-1.97L144.94-1.97Q144.03-2.87 143.50-4.10L143.50-4.10L143.50-4.10Q142.97-5.33 142.97-6.73L142.97-6.73" fill="#ff6666" stroke="none" stroke-width="none" transform="translate(-188.60501098632812,18.623797912597656)" style="fill: rgb(255, 102, 255);"></path></g><g class="path" style="opacity: 1; transform-origin: 12.185px 0.423798px; animation: 1s linear -0.266667s infinite normal forwards running fade-0cd69323-00f1-491d-8e34-bf36e3bb5f8a;"><path d="M209.97-36.40L218.10-36.40L204.87-18.63L218.72 0L210.58 0L200.81-13.16L191.00 0L182.86 0L196.74-18.63L183.51-36.40L191.61-36.40L200.81-24.10L209.97-36.40" fill="#ff6666" stroke="none" stroke-width="none" transform="translate(-188.60501098632812,18.623797912597656)" style="fill: rgb(153, 102, 255);"></path></g><g class="path" style="opacity: 1; transform-origin: 42.915px 13.5138px; animation: 1s linear -0.2s infinite normal forwards running fade-0cd69323-00f1-491d-8e34-bf36e3bb5f8a;"><path d="M226.41 0L226.41-10.22L236.63-10.22L236.63 0L226.41 0" fill="#ff6666" stroke="none" stroke-width="none" transform="translate(-188.60501098632812,18.623797912597656)" style="fill: rgb(255, 102, 102);"></path></g><g class="path" style="opacity: 1; transform-origin: 74.63px 0.423798px; animation: 1s linear -0.133333s infinite normal forwards running fade-0cd69323-00f1-491d-8e34-bf36e3bb5f8a;"><path d="M271.90-29.67L254.54-29.67L254.54-6.73L271.90-6.73L271.90-12.89L278.63-12.89L278.63-6.73L278.63-6.73Q278.63-5.33 278.10-4.10L278.10-4.10L278.10-4.10Q277.57-2.87 276.67-1.97L276.67-1.97L276.67-1.97Q275.76-1.06 274.53-0.53L274.53-0.53L274.53-0.53Q273.30 0 271.90 0L271.90 0L254.54 0L254.54 0Q253.17 0 251.94-0.53L251.94-0.53L251.94-0.53Q250.71-1.06 249.80-1.97L249.80-1.97L249.80-1.97Q248.90-2.87 248.37-4.10L248.37-4.10L248.37-4.10Q247.84-5.33 247.84-6.73L247.84-6.73L247.84-29.67L247.84-29.67Q247.84-31.07 248.37-32.30L248.37-32.30L248.37-32.30Q248.90-33.53 249.80-34.44L249.80-34.44L249.80-34.44Q250.71-35.34 251.94-35.87L251.94-35.87L251.94-35.87Q253.17-36.40 254.54-36.40L254.54-36.40L271.90-36.40L271.90-36.40Q273.30-36.40 274.53-35.87L274.53-35.87L274.53-35.87Q275.76-35.34 276.67-34.44L276.67-34.44L276.67-34.44Q277.57-33.53 278.10-32.30L278.10-32.30L278.10-32.30Q278.63-31.07 278.63-29.67L278.63-29.67L278.63-23.52L271.90-23.52L271.90-29.67" fill="#ff6666" stroke="none" stroke-width="none" transform="translate(-188.60501098632812,18.623797912597656)" style="fill: rgb(255, 102, 153);"></path></g><g class="path" style="opacity: 1; transform-origin: 116.975px 0.423798px; animation: 1s linear -0.0666667s infinite normal forwards running fade-0cd69323-00f1-491d-8e34-bf36e3bb5f8a;"><path d="M321.32-29.67L321.32-6.73L321.32-6.73Q321.32-5.33 320.79-4.10L320.79-4.10L320.79-4.10Q320.26-2.87 319.36-1.97L319.36-1.97L319.36-1.97Q318.45-1.06 317.24-0.53L317.24-0.53L317.24-0.53Q316.03 0 314.62 0L314.62 0L296.54 0L296.54 0Q295.18 0 293.95-0.53L293.95-0.53L293.95-0.53Q292.71-1.06 291.81-1.97L291.81-1.97L291.81-1.97Q290.90-2.87 290.37-4.10L290.37-4.10L290.37-4.10Q289.84-5.33 289.84-6.73L289.84-6.73L289.84-29.67L289.84-29.67Q289.84-31.07 290.37-32.30L290.37-32.30L290.37-32.30Q290.90-33.53 291.81-34.44L291.81-34.44L291.81-34.44Q292.71-35.34 293.95-35.87L293.95-35.87L293.95-35.87Q295.18-36.40 296.54-36.40L296.54-36.40L314.62-36.40L314.62-36.40Q316.03-36.40 317.24-35.87L317.24-35.87L317.24-35.87Q318.45-35.34 319.36-34.44L319.36-34.44L319.36-34.44Q320.26-33.53 320.79-32.30L320.79-32.30L320.79-32.30Q321.32-31.07 321.32-29.67L321.32-29.67zM314.62-29.67L296.54-29.67L296.54-6.73L314.62-6.73L314.62-29.67" fill="#ff6666" stroke="none" stroke-width="none" transform="translate(-188.60501098632812,18.623797912597656)" style="fill: rgb(255, 102, 204);"></path></g><g class="path" style="opacity: 1; transform-origin: 169.41px 0.423798px; animation: 1s linear 0s infinite normal forwards running fade-0cd69323-00f1-491d-8e34-bf36e3bb5f8a;"><path d="M376.76-29.67L361.38-29.67L361.38 0L354.65 0L354.65-29.67L339.23-29.67L339.23 0L332.53 0L332.53-36.40L339.23-36.40L339.23-29.98L339.23-29.98Q339.30-31.31 339.85-32.49L339.85-32.49L339.85-32.49Q340.40-33.67 341.30-34.54L341.30-34.54L341.30-34.54Q342.21-35.41 343.40-35.91L343.40-35.91L343.40-35.91Q344.60-36.40 345.97-36.40L345.97-36.40L354.65-36.40L354.65-36.40Q355.98-36.40 357.18-35.91L357.18-35.91L357.18-35.91Q358.37-35.41 359.30-34.54L359.30-34.54L359.30-34.54Q360.22-33.67 360.78-32.49L360.78-32.49L360.78-32.49Q361.35-31.31 361.38-29.98L361.38-29.98L361.38-29.98Q361.45-31.31 361.98-32.49L361.98-32.49L361.98-32.49Q362.51-33.67 363.42-34.54L363.42-34.54L363.42-34.54Q364.32-35.41 365.52-35.91L365.52-35.91L365.52-35.91Q366.71-36.40 368.08-36.40L368.08-36.40L376.76-36.40L376.76-36.40Q378.16-36.40 379.39-35.87L379.39-35.87L379.39-35.87Q380.63-35.34 381.53-34.44L381.53-34.44L381.53-34.44Q382.44-33.53 382.97-32.30L382.97-32.30L382.97-32.30Q383.50-31.07 383.50-29.67L383.50-29.67L383.50 0L376.76 0L376.76-29.67" fill="#ff6666" stroke="none" stroke-width="none" transform="translate(-188.60501098632812,18.623797912597656)" style="fill: rgb(255, 102, 255);"></path></g></g>
</g>
</g>
<style id="fade-0cd69323-00f1-491d-8e34-bf36e3bb5f8a" data-anikit="">@keyframes fade-0cd69323-00f1-491d-8e34-bf36e3bb5f8a
{
  0% {
    animation-timing-function: cubic-bezier(0.2057,0.573,0.3723,0.9184);
    opacity: 1;
  }
  100% {
    opacity: 0;
  }
}</style></svg>